<svg width="850" height="850" viewBox="0 0 850 850" fill="none" xmlns="http://www.w3.org/2000/svg">
<circle cx="425" cy="425" r="355" fill="#FAF4E6"/>
<path fill-rule="evenodd" clip-rule="evenodd" d="M441 656.5C251.413 553.813 205.565 454.954 234 391C262.435 327.046 317.81 318.199 371 335.5C424.19 352.801 452.093 415.061 454 412C455.907 408.939 521.674 363.896 583 399.5C614.508 417.793 620.24 459.44 613.5 488.5C603.821 530.233 551.5 579 551.5 579C551.5 579 495.758 627.915 441 656.5ZM515.5 424.5C493.5 420.744 464.932 432.674 450 452C426.96 412.982 411.605 397.915 378.5 387C343.162 377.078 311.419 389 300 420.5C288.581 452 313.5 504 313.5 504C350.324 560.492 378.196 589.523 441 636.5C441 636.5 501.5 589.5 527.5 564C553.5 538.5 572 504 568.5 469C565 434 537.5 428.256 515.5 424.5Z" fill="#57AFBF" stroke="#57AFBF" stroke-width="5"/>
<circle cx="336.5" cy="251.5" r="62" fill="#57AFBF" stroke="#57AFBF"/>
<circle cx="535" cy="322" r="49.5" fill="#57AFBF" stroke="#57AFBF"/>
</svg>
