<svg width="1024" height="1024" viewBox="0 0 1024 1024" fill="none" xmlns="http://www.w3.org/2000/svg">
<path fill-rule="evenodd" clip-rule="evenodd" d="M531.732 629.5C342.146 526.813 296.297 427.954 324.732 364C353.167 300.046 408.543 291.199 461.732 308.5C514.922 325.801 542.825 388.061 544.732 385C546.64 381.939 612.407 336.896 673.732 372.5C705.241 390.793 710.972 432.44 704.232 461.5C694.553 503.233 642.232 552 642.232 552C642.232 552 586.49 600.915 531.732 629.5ZM606.232 397.5C584.232 393.744 555.664 405.674 540.732 425C517.692 385.982 502.337 370.915 469.232 360C433.894 350.078 402.151 362 390.732 393.5C379.313 425 404.232 477 404.232 477C441.057 533.492 468.928 562.523 531.732 609.5C531.732 609.5 592.232 562.5 618.232 537C644.232 511.5 662.732 477 659.232 442C655.732 407 628.232 401.256 606.232 397.5Z" fill="#57AFBF" stroke="#57AFBF" stroke-width="5"/>
<circle cx="427.232" cy="224.5" r="62" fill="#57AFBF" stroke="#57AFBF"/>
<circle cx="625.732" cy="295" r="49.5" fill="#57AFBF" stroke="#57AFBF"/>
<path d="M160.96 756V666.4H184.512L209.344 711.84L233.92 666.4H256.96V756H233.92V704.672L215.36 738.72H202.56L184 704.672V756H160.96ZM304.915 757.664C298.259 757.664 292.286 756.427 286.995 753.952C281.704 751.392 277.48 747.509 274.323 742.304C271.251 737.099 269.715 730.571 269.715 722.72V720.16C269.715 712.651 271.208 706.421 274.195 701.472C277.182 696.523 281.235 692.811 286.355 690.336C291.56 687.776 297.32 686.496 303.635 686.496C314.814 686.496 323.262 689.397 328.979 695.2C334.696 700.917 337.555 709.237 337.555 720.16V727.328H289.939C290.11 730.656 290.878 733.429 292.243 735.648C293.694 737.867 295.528 739.488 297.747 740.512C299.966 741.451 302.355 741.92 304.915 741.92C308.67 741.92 311.614 741.365 313.747 740.256C315.966 739.061 317.416 737.483 318.099 735.52H336.275C334.91 742.944 331.539 748.491 326.163 752.16C320.787 755.829 313.704 757.664 304.915 757.664ZM304.275 702.24C301.886 702.24 299.624 702.624 297.491 703.392C295.358 704.16 293.608 705.44 292.243 707.232C290.963 708.939 290.238 711.285 290.067 714.272H318.227C318.227 711.115 317.587 708.683 316.307 706.976C315.027 705.184 313.32 703.947 311.187 703.264C309.139 702.581 306.835 702.24 304.275 702.24ZM342.527 756L375.295 666.4H398.335L430.975 756H406.655L400.511 738.848H370.559L364.415 756H342.527ZM377.087 721.184H393.983L385.535 694.56L377.087 721.184ZM435.322 783.264C434.383 783.264 433.317 783.221 432.122 783.136C430.927 783.136 429.861 783.051 428.922 782.88V766.496C429.605 766.667 430.373 766.752 431.226 766.752C431.994 766.837 432.719 766.88 433.402 766.88C434.767 766.88 435.919 766.539 436.858 765.856C437.882 765.259 438.65 764.021 439.162 762.144C439.674 760.267 439.93 757.579 439.93 754.08V688.16H459.642V756C459.642 763.168 458.917 768.715 457.466 772.64C456.101 776.565 453.626 779.296 450.042 780.832C446.543 782.453 441.637 783.264 435.322 783.264ZM449.786 681.76C446.117 681.76 443.258 680.821 441.21 678.944C439.247 676.981 438.266 674.507 438.266 671.52C438.266 668.533 439.247 666.101 441.21 664.224C443.258 662.261 446.117 661.28 449.786 661.28C453.455 661.28 456.271 662.261 458.234 664.224C460.282 666.101 461.306 668.533 461.306 671.52C461.306 674.507 460.282 676.981 458.234 678.944C456.271 680.821 453.455 681.76 449.786 681.76ZM497.071 757.664C489.306 757.664 483.375 755.445 479.279 751.008C475.183 746.571 473.135 739.829 473.135 730.784V688.16H492.847V727.712C492.847 732.149 493.743 735.52 495.535 737.824C497.412 740.128 500.399 741.28 504.495 741.28C507.396 741.28 509.786 740.683 511.663 739.488C513.626 738.293 515.076 736.672 516.015 734.624C516.954 732.576 517.423 730.272 517.423 727.712V688.16H537.135V756H518.959V746.784C517.167 749.856 514.436 752.459 510.767 754.592C507.183 756.64 502.618 757.664 497.071 757.664ZM576.524 757.664C570.636 757.664 565.473 756.341 561.036 753.696C556.684 751.051 553.313 747.168 550.924 742.048C548.535 736.843 547.34 730.4 547.34 722.72V720.16C547.34 712.821 548.492 706.677 550.796 701.728C553.1 696.693 556.428 692.896 560.78 690.336C565.132 687.776 570.38 686.496 576.524 686.496C580.364 686.496 583.991 687.392 587.404 689.184C590.903 690.891 593.804 693.408 596.108 696.736V666.4H615.82V756H597.644V746.784C595.937 749.515 593.249 752.032 589.58 754.336C585.996 756.555 581.644 757.664 576.524 757.664ZM581.26 741.408C584.076 741.408 586.593 740.768 588.812 739.488C591.031 738.123 592.78 736.203 594.06 733.728C595.425 731.168 596.108 728.139 596.108 724.64V718.24C596.108 714.827 595.425 711.968 594.06 709.664C592.78 707.36 591.031 705.653 588.812 704.544C586.593 703.349 584.076 702.752 581.26 702.752C577.249 702.752 573.964 704.203 571.404 707.104C568.844 709.92 567.564 714.272 567.564 720.16V722.72C567.564 728.864 568.844 733.515 571.404 736.672C574.049 739.829 577.335 741.408 581.26 741.408ZM649.77 757.664C644.906 757.664 640.725 756.725 637.226 754.848C633.813 752.971 631.21 750.411 629.418 747.168C627.626 743.84 626.73 740.171 626.73 736.16C626.73 729.419 628.778 724.256 632.874 720.672C637.055 717.088 643.327 715.296 651.69 715.296H670.89V712.48C670.89 708.384 669.909 705.568 667.946 704.032C666.069 702.496 663.423 701.728 660.01 701.728C656.767 701.728 654.378 702.24 652.842 703.264C651.306 704.203 650.453 705.781 650.282 708H630.57C630.826 703.904 632.106 700.235 634.41 696.992C636.799 693.749 640.17 691.189 644.522 689.312C648.959 687.435 654.335 686.496 660.65 686.496C666.623 686.496 671.871 687.392 676.394 689.184C680.917 690.976 684.415 693.877 686.89 697.888C689.45 701.813 690.73 707.104 690.73 713.76V738.72C690.73 742.304 690.815 745.461 690.986 748.192C691.157 750.837 691.413 753.44 691.754 756H672.938C672.853 754.549 672.725 753.269 672.554 752.16C672.469 751.051 672.426 749.685 672.426 748.064C670.378 750.795 667.519 753.099 663.85 754.976C660.266 756.768 655.573 757.664 649.77 757.664ZM656.17 743.712C658.986 743.712 661.503 743.2 663.722 742.176C665.941 741.152 667.69 739.616 668.97 737.568C670.25 735.435 670.89 733.045 670.89 730.4V727.584H655.53C652.629 727.584 650.453 728.352 649.002 729.888C647.637 731.424 646.954 733.173 646.954 735.136C646.954 737.696 647.637 739.787 649.002 741.408C650.453 742.944 652.842 743.712 656.17 743.712ZM716.98 757.664C714.761 757.664 712.713 757.109 710.836 756C708.959 754.976 707.465 753.568 706.356 751.776C705.332 749.899 704.82 747.765 704.82 745.376C704.82 742.048 705.972 739.232 708.276 736.928C710.665 734.539 713.567 733.344 716.98 733.344C720.393 733.344 723.295 734.539 725.684 736.928C728.073 739.232 729.268 742.048 729.268 745.376C729.268 747.765 728.713 749.899 727.604 751.776C726.495 753.568 725.001 754.976 723.124 756C721.332 757.109 719.284 757.664 716.98 757.664ZM739.777 756L772.545 666.4H795.585L828.225 756H803.905L797.761 738.848H767.809L761.665 756H739.777ZM774.337 721.184H791.233L782.785 694.56L774.337 721.184ZM839.74 756V666.4H862.78V756H839.74Z" fill="#57AFBF"/>
<path d="M212.405 847L229.557 802.2H235.573L252.725 847H246.197L241.909 835.864H222.965L218.677 847H212.405ZM224.949 830.616H239.925L232.437 809.88L224.949 830.616ZM270.648 847.64C268.386 847.64 266.424 847.384 264.76 846.872C263.096 846.317 261.709 845.592 260.6 844.696C259.49 843.8 258.594 842.755 257.911 841.56C257.272 840.323 256.824 839.043 256.568 837.72H262.2C262.498 839.085 263.288 840.28 264.568 841.304C265.89 842.285 267.917 842.776 270.648 842.776C273.805 842.776 276.002 842.285 277.24 841.304C278.477 840.28 279.096 839.085 279.096 837.72C279.096 836.781 278.818 835.971 278.264 835.288C277.752 834.563 276.813 833.944 275.448 833.432C274.125 832.92 272.226 832.493 269.752 832.152C267.874 831.896 266.189 831.533 264.696 831.064C263.202 830.552 261.922 829.891 260.856 829.08C259.789 828.269 258.957 827.288 258.36 826.136C257.805 824.984 257.528 823.619 257.528 822.04C257.528 820.333 258.018 818.755 259 817.304C259.981 815.853 261.453 814.68 263.416 813.784C265.378 812.888 267.789 812.44 270.648 812.44C273.336 812.44 275.554 812.909 277.304 813.848C279.096 814.744 280.482 815.939 281.464 817.432C282.445 818.925 283.106 820.568 283.448 822.36H277.816C277.474 820.867 276.749 819.651 275.64 818.712C274.53 817.773 272.866 817.304 270.648 817.304C267.874 817.304 265.933 817.773 264.824 818.712C263.714 819.608 263.16 820.717 263.16 822.04C263.16 823.576 263.757 824.728 264.952 825.496C266.189 826.264 268.429 826.861 271.672 827.288C273.762 827.544 275.618 827.928 277.24 828.44C278.861 828.909 280.226 829.571 281.336 830.424C282.445 831.235 283.277 832.237 283.832 833.432C284.429 834.627 284.728 836.056 284.728 837.72C284.728 839.512 284.216 841.155 283.192 842.648C282.168 844.141 280.61 845.357 278.52 846.296C276.472 847.192 273.848 847.64 270.648 847.64ZM304.585 847.64C302.324 847.64 300.361 847.384 298.697 846.872C297.033 846.317 295.646 845.592 294.537 844.696C293.428 843.8 292.532 842.755 291.849 841.56C291.209 840.323 290.761 839.043 290.505 837.72H296.137C296.436 839.085 297.225 840.28 298.505 841.304C299.828 842.285 301.854 842.776 304.585 842.776C307.742 842.776 309.94 842.285 311.177 841.304C312.414 840.28 313.033 839.085 313.033 837.72C313.033 836.781 312.756 835.971 312.201 835.288C311.689 834.563 310.75 833.944 309.385 833.432C308.062 832.92 306.164 832.493 303.689 832.152C301.812 831.896 300.126 831.533 298.633 831.064C297.14 830.552 295.86 829.891 294.793 829.08C293.726 828.269 292.894 827.288 292.297 826.136C291.742 824.984 291.465 823.619 291.465 822.04C291.465 820.333 291.956 818.755 292.937 817.304C293.918 815.853 295.39 814.68 297.353 813.784C299.316 812.888 301.726 812.44 304.585 812.44C307.273 812.44 309.492 812.909 311.241 813.848C313.033 814.744 314.42 815.939 315.401 817.432C316.382 818.925 317.044 820.568 317.385 822.36H311.753C311.412 820.867 310.686 819.651 309.577 818.712C308.468 817.773 306.804 817.304 304.585 817.304C301.812 817.304 299.87 817.773 298.761 818.712C297.652 819.608 297.097 820.717 297.097 822.04C297.097 823.576 297.694 824.728 298.889 825.496C300.126 826.264 302.366 826.861 305.609 827.288C307.7 827.544 309.556 827.928 311.177 828.44C312.798 828.909 314.164 829.571 315.273 830.424C316.382 831.235 317.214 832.237 317.769 833.432C318.366 834.627 318.665 836.056 318.665 837.72C318.665 839.512 318.153 841.155 317.129 842.648C316.105 844.141 314.548 845.357 312.457 846.296C310.409 847.192 307.785 847.64 304.585 847.64ZM327.323 847V813.08H332.955V847H327.323ZM330.139 808.6C329.029 808.6 328.112 808.237 327.387 807.512C326.661 806.787 326.299 805.869 326.299 804.76C326.299 803.651 326.661 802.733 327.387 802.008C328.112 801.283 329.029 800.92 330.139 800.92C331.248 800.92 332.165 801.283 332.891 802.008C333.616 802.733 333.979 803.651 333.979 804.76C333.979 805.869 333.616 806.787 332.891 807.512C332.165 808.237 331.248 808.6 330.139 808.6ZM355.648 847.64C353.386 847.64 351.424 847.384 349.76 846.872C348.096 846.317 346.709 845.592 345.6 844.696C344.49 843.8 343.594 842.755 342.911 841.56C342.272 840.323 341.824 839.043 341.568 837.72H347.2C347.498 839.085 348.288 840.28 349.568 841.304C350.89 842.285 352.917 842.776 355.648 842.776C358.805 842.776 361.002 842.285 362.24 841.304C363.477 840.28 364.096 839.085 364.096 837.72C364.096 836.781 363.818 835.971 363.264 835.288C362.752 834.563 361.813 833.944 360.448 833.432C359.125 832.92 357.226 832.493 354.752 832.152C352.874 831.896 351.189 831.533 349.696 831.064C348.202 830.552 346.922 829.891 345.856 829.08C344.789 828.269 343.957 827.288 343.36 826.136C342.805 824.984 342.528 823.619 342.528 822.04C342.528 820.333 343.018 818.755 344 817.304C344.981 815.853 346.453 814.68 348.416 813.784C350.378 812.888 352.789 812.44 355.648 812.44C358.336 812.44 360.554 812.909 362.304 813.848C364.096 814.744 365.482 815.939 366.464 817.432C367.445 818.925 368.106 820.568 368.448 822.36H362.816C362.474 820.867 361.749 819.651 360.64 818.712C359.53 817.773 357.866 817.304 355.648 817.304C352.874 817.304 350.933 817.773 349.824 818.712C348.714 819.608 348.16 820.717 348.16 822.04C348.16 823.576 348.757 824.728 349.952 825.496C351.189 826.264 353.429 826.861 356.672 827.288C358.762 827.544 360.618 827.928 362.24 828.44C363.861 828.909 365.226 829.571 366.336 830.424C367.445 831.235 368.277 832.237 368.832 833.432C369.429 834.627 369.728 836.056 369.728 837.72C369.728 839.512 369.216 841.155 368.192 842.648C367.168 844.141 365.61 845.357 363.52 846.296C361.472 847.192 358.848 847.64 355.648 847.64ZM390.225 847.32C387.836 847.32 385.873 846.957 384.337 846.232C382.844 845.507 381.734 844.419 381.009 842.968C380.326 841.475 379.985 839.619 379.985 837.4V818.072H374.865V813.08H379.985V805.4H385.617V813.08H394.705V818.072H385.617V836.76C385.617 838.68 386.022 840.067 386.833 840.92C387.644 841.773 389.201 842.2 391.505 842.2C392.785 842.2 394.065 842.136 395.345 842.008V847C394.534 847.085 393.724 847.149 392.913 847.192C392.102 847.277 391.206 847.32 390.225 847.32ZM417.45 847.64C414.591 847.64 411.903 847.021 409.386 845.784C406.911 844.547 404.906 842.648 403.37 840.088C401.877 837.528 401.13 834.285 401.13 830.36V829.08C401.13 825.325 401.855 822.232 403.306 819.8C404.757 817.325 406.677 815.491 409.066 814.296C411.455 813.059 414.037 812.44 416.81 812.44C421.802 812.44 425.663 813.805 428.394 816.536C431.125 819.267 432.49 823.128 432.49 828.12V831.704H406.762C406.762 834.349 407.295 836.461 408.362 838.04C409.471 839.619 410.837 840.771 412.458 841.496C414.122 842.179 415.786 842.52 417.45 842.52C420.01 842.52 421.973 842.093 423.338 841.24C424.746 840.387 425.749 839.213 426.346 837.72H431.85C431.167 840.963 429.482 843.437 426.794 845.144C424.149 846.808 421.034 847.64 417.45 847.64ZM417.13 817.56C415.381 817.56 413.717 817.901 412.138 818.584C410.559 819.224 409.258 820.248 408.234 821.656C407.253 823.064 406.762 824.877 406.762 827.096H427.178C427.135 824.749 426.645 822.893 425.706 821.528C424.81 820.12 423.615 819.117 422.122 818.52C420.629 817.88 418.965 817.56 417.13 817.56ZM440.495 847V813.08H445.743V819.48C446.511 817.603 447.855 815.96 449.775 814.552C451.738 813.144 454.255 812.44 457.327 812.44C461.594 812.44 464.751 813.592 466.799 815.896C468.89 818.157 469.935 821.485 469.935 825.88V847H464.303V827.16C464.303 824.003 463.642 821.613 462.319 819.992C460.996 818.371 458.778 817.56 455.663 817.56C453.444 817.56 451.631 818.029 450.223 818.968C448.815 819.907 447.77 821.101 447.087 822.552C446.447 824.003 446.127 825.539 446.127 827.16V847H440.495ZM491.725 847.32C489.336 847.32 487.373 846.957 485.837 846.232C484.344 845.507 483.234 844.419 482.509 842.968C481.826 841.475 481.485 839.619 481.485 837.4V818.072H476.365V813.08H481.485V805.4H487.117V813.08H496.205V818.072H487.117V836.76C487.117 838.68 487.522 840.067 488.333 840.92C489.144 841.773 490.701 842.2 493.005 842.2C494.285 842.2 495.565 842.136 496.845 842.008V847C496.034 847.085 495.224 847.149 494.413 847.192C493.602 847.277 492.706 847.32 491.725 847.32ZM518.95 847.64C516.091 847.64 513.403 847.021 510.886 845.784C508.411 844.547 506.406 842.648 504.87 840.088C503.377 837.528 502.63 834.285 502.63 830.36V829.08C502.63 825.325 503.355 822.232 504.806 819.8C506.257 817.325 508.177 815.491 510.566 814.296C512.955 813.059 515.537 812.44 518.31 812.44C523.302 812.44 527.163 813.805 529.894 816.536C532.625 819.267 533.99 823.128 533.99 828.12V831.704H508.262C508.262 834.349 508.795 836.461 509.862 838.04C510.971 839.619 512.337 840.771 513.958 841.496C515.622 842.179 517.286 842.52 518.95 842.52C521.51 842.52 523.473 842.093 524.838 841.24C526.246 840.387 527.249 839.213 527.846 837.72H533.35C532.667 840.963 530.982 843.437 528.294 845.144C525.649 846.808 522.534 847.64 518.95 847.64ZM518.63 817.56C516.881 817.56 515.217 817.901 513.638 818.584C512.059 819.224 510.758 820.248 509.734 821.656C508.753 823.064 508.262 824.877 508.262 827.096H528.678C528.635 824.749 528.145 822.893 527.206 821.528C526.31 820.12 525.115 819.117 523.622 818.52C522.129 817.88 520.465 817.56 518.63 817.56ZM559.275 847V802.2H574.635C578.603 802.2 581.846 802.797 584.363 803.992C586.923 805.144 588.822 806.765 590.059 808.856C591.296 810.904 591.915 813.272 591.915 815.96C591.915 818.605 591.296 820.973 590.059 823.064C588.822 825.155 586.923 826.797 584.363 827.992C581.846 829.144 578.603 829.72 574.635 829.72H565.291V847H559.275ZM565.291 824.472H574.315C578.582 824.472 581.568 823.704 583.275 822.168C585.024 820.632 585.899 818.563 585.899 815.96C585.899 813.357 585.024 811.288 583.275 809.752C581.568 808.216 578.582 807.448 574.315 807.448H565.291V824.472ZM608.972 847.64C606.497 847.64 604.385 847.192 602.635 846.296C600.929 845.357 599.628 844.099 598.732 842.52C597.836 840.899 597.388 839.085 597.388 837.08C597.388 833.709 598.369 831.277 600.332 829.784C602.337 828.291 605.196 827.544 608.908 827.544H619.916V825.24C619.916 822.339 619.254 820.333 617.932 819.224C616.652 818.115 614.71 817.56 612.108 817.56C609.676 817.56 607.905 818.029 606.796 818.968C605.686 819.864 605.068 820.888 604.94 822.04H599.308C599.436 820.205 600.054 818.584 601.164 817.176C602.273 815.725 603.788 814.573 605.708 813.72C607.628 812.867 609.868 812.44 612.428 812.44C615.116 812.44 617.441 812.867 619.404 813.72C621.366 814.531 622.881 815.832 623.948 817.624C625.014 819.373 625.548 821.699 625.548 824.6V838.36C625.548 840.152 625.548 841.731 625.548 843.096C625.59 844.419 625.697 845.72 625.868 847H620.94C620.812 846.019 620.726 845.101 620.684 844.248C620.641 843.352 620.62 842.349 620.62 841.24C619.724 843.032 618.273 844.547 616.268 845.784C614.262 847.021 611.83 847.64 608.972 847.64ZM610.188 842.52C611.98 842.52 613.601 842.2 615.052 841.56C616.545 840.92 617.718 839.981 618.572 838.744C619.468 837.507 619.916 835.992 619.916 834.2V831.896H609.868C607.777 831.896 606.134 832.323 604.94 833.176C603.745 833.987 603.148 835.288 603.148 837.08C603.148 838.659 603.702 839.96 604.812 840.984C605.964 842.008 607.756 842.52 610.188 842.52ZM635.495 847V813.08H640.743V819.48C641.255 818.115 641.959 816.92 642.855 815.896C643.751 814.829 644.839 813.997 646.119 813.4C647.442 812.76 648.914 812.44 650.535 812.44C651.388 812.44 652.071 812.483 652.583 812.568C653.138 812.653 653.628 812.76 654.055 812.888V818.136C653.5 817.923 652.946 817.773 652.391 817.688C651.879 817.603 651.154 817.56 650.215 817.56C648.508 817.56 646.972 817.965 645.607 818.776C644.242 819.587 643.154 820.717 642.343 822.168C641.532 823.576 641.127 825.24 641.127 827.16V847H635.495ZM673.888 847.64C671.029 847.64 668.341 847.021 665.824 845.784C663.349 844.547 661.344 842.648 659.808 840.088C658.314 837.528 657.568 834.285 657.568 830.36V829.08C657.568 825.325 658.293 822.232 659.744 819.8C661.194 817.325 663.114 815.491 665.504 814.296C667.893 813.059 670.474 812.44 673.248 812.44C678.24 812.44 682.101 813.805 684.832 816.536C687.562 819.267 688.928 823.128 688.928 828.12V831.704H663.2C663.2 834.349 663.733 836.461 664.8 838.04C665.909 839.619 667.274 840.771 668.896 841.496C670.56 842.179 672.224 842.52 673.888 842.52C676.448 842.52 678.41 842.093 679.776 841.24C681.184 840.387 682.186 839.213 682.784 837.72H688.288C687.605 840.963 685.92 843.437 683.232 845.144C680.586 846.808 677.472 847.64 673.888 847.64ZM673.568 817.56C671.818 817.56 670.154 817.901 668.576 818.584C666.997 819.224 665.696 820.248 664.672 821.656C663.69 823.064 663.2 824.877 663.2 827.096H683.616C683.573 824.749 683.082 822.893 682.144 821.528C681.248 820.12 680.053 819.117 678.56 818.52C677.066 817.88 675.402 817.56 673.568 817.56ZM696.933 847V813.08H702.181V819.48C702.949 817.603 704.293 815.96 706.213 814.552C708.175 813.144 710.693 812.44 713.765 812.44C718.031 812.44 721.189 813.592 723.237 815.896C725.327 818.157 726.373 821.485 726.373 825.88V847H720.741V827.16C720.741 824.003 720.079 821.613 718.757 819.992C717.434 818.371 715.215 817.56 712.101 817.56C709.882 817.56 708.069 818.029 706.661 818.968C705.253 819.907 704.207 821.101 703.525 822.552C702.885 824.003 702.565 825.539 702.565 827.16V847H696.933ZM748.163 847.32C745.773 847.32 743.811 846.957 742.275 846.232C740.781 845.507 739.672 844.419 738.947 842.968C738.264 841.475 737.923 839.619 737.923 837.4V818.072H732.803V813.08H737.923V805.4H743.555V813.08H752.643V818.072H743.555V836.76C743.555 838.68 743.96 840.067 744.771 840.92C745.581 841.773 747.139 842.2 749.443 842.2C750.723 842.2 752.003 842.136 753.283 842.008V847C752.472 847.085 751.661 847.149 750.851 847.192C750.04 847.277 749.144 847.32 748.163 847.32ZM770.972 847.64C768.497 847.64 766.385 847.192 764.635 846.296C762.929 845.357 761.628 844.099 760.732 842.52C759.836 840.899 759.388 839.085 759.388 837.08C759.388 833.709 760.369 831.277 762.332 829.784C764.337 828.291 767.196 827.544 770.908 827.544H781.916V825.24C781.916 822.339 781.254 820.333 779.932 819.224C778.652 818.115 776.71 817.56 774.108 817.56C771.676 817.56 769.905 818.029 768.796 818.968C767.686 819.864 767.068 820.888 766.94 822.04H761.308C761.436 820.205 762.054 818.584 763.164 817.176C764.273 815.725 765.788 814.573 767.708 813.72C769.628 812.867 771.868 812.44 774.428 812.44C777.116 812.44 779.441 812.867 781.404 813.72C783.366 814.531 784.881 815.832 785.948 817.624C787.014 819.373 787.548 821.699 787.548 824.6V838.36C787.548 840.152 787.548 841.731 787.548 843.096C787.59 844.419 787.697 845.72 787.868 847H782.94C782.812 846.019 782.726 845.101 782.684 844.248C782.641 843.352 782.62 842.349 782.62 841.24C781.724 843.032 780.273 844.547 778.268 845.784C776.262 847.021 773.83 847.64 770.972 847.64ZM772.188 842.52C773.98 842.52 775.601 842.2 777.052 841.56C778.545 840.92 779.718 839.981 780.572 838.744C781.468 837.507 781.916 835.992 781.916 834.2V831.896H771.868C769.777 831.896 768.134 832.323 766.94 833.176C765.745 833.987 765.148 835.288 765.148 837.08C765.148 838.659 765.702 839.96 766.812 840.984C767.964 842.008 769.756 842.52 772.188 842.52ZM807.735 847.32C805.388 847.32 803.468 846.957 801.975 846.232C800.524 845.464 799.458 844.291 798.775 842.712C798.135 841.091 797.815 839 797.815 836.44V802.2H803.447V836.44C803.447 838.659 803.81 840.173 804.535 840.984C805.26 841.795 806.54 842.2 808.375 842.2C808.844 842.2 809.25 842.2 809.591 842.2C809.932 842.157 810.274 842.115 810.615 842.072V847.064C810.402 847.107 810.103 847.149 809.719 847.192C809.378 847.235 809.015 847.256 808.631 847.256C808.29 847.299 807.991 847.32 807.735 847.32Z" fill="#57AFBF"/>
</svg>
